<svg xmlns="http://www.w3.org/2000/svg" width="28" height="44.094" viewBox="0 0 28 44.094"><g transform="translate(-557 -43)"><text transform="translate(571 83.094)" fill="#5b6770" font-size="12" font-family="OpenSans-Regular, Open Sans"><tspan x="-13.415" y="0">NEW</tspan></text><g transform="translate(563 43)"><path d="M15.851,9.976H.816A.786.786,0,0,0,0,10.728v14.99a.746.746,0,0,0,.418.657.876.876,0,0,0,.825-.016L8.33,22.34l7.094,4.018a.875.875,0,0,0,.825.016.746.746,0,0,0,.418-.657V10.728A.784.784,0,0,0,15.851,9.976Zm0,15.741-7.4-4.191a.252.252,0,0,0-.123-.035.24.24,0,0,0-.119.033L.816,25.718V10.728H15.851Z" transform="translate(0 -2.471)" fill="#5b6770"/><path d="M15.851,0H.816A.786.786,0,0,0,0,.752V5.3a.786.786,0,0,0,.816.752H15.851a.786.786,0,0,0,.816-.752V.752A.786.786,0,0,0,15.851,0Zm0,5.3H.816V.752H15.851Z" transform="translate(0)" fill="#5b6770"/></g></g></svg>